<?xml version="1.0" standalone="no"?><!DOCTYPE svg PUBLIC "-//W3C//DTD SVG 1.1//EN" "http://www.w3.org/Graphics/SVG/1.1/DTD/svg11.dtd"><svg t="1606948090186" class="icon" viewBox="0 0 1024 1024" version="1.1" xmlns="http://www.w3.org/2000/svg" p-id="9853" xmlns:xlink="http://www.w3.org/1999/xlink" width="200" height="200"><defs><style type="text/css"></style></defs><path d="M998.4 800H0v128H1001.6c16 0 22.4-3.2 22.4-19.2 0-25.6-3.2-54.4 0-83.2 0-22.4-6.4-25.6-25.6-25.6zM704 416v297.6c0 16 3.2 25.6 22.4 22.4 25.6 0 54.4-3.2 80 0 19.2 0 28.8-3.2 28.8-25.6v-227.2V121.6c-3.2-19.2-6.4-25.6-25.6-25.6-25.6 3.2-54.4 3.2-83.2 0-19.2 0-22.4 6.4-22.4 25.6V416zM320 512v204.8c0 16 3.2 22.4 22.4 22.4h89.6c12.8 0 19.2-3.2 19.2-16V310.4c-3.2-19.2-6.4-22.4-19.2-22.4h-89.6c-19.2 0-22.4 3.2-22.4 19.2V512zM531.2 736h89.6c16 0 19.2-3.2 19.2-19.2v-105.6-112c0-12.8-3.2-19.2-16-16h-92.8c-12.8 0-19.2 3.2-16 16v220.8c-3.2 12.8 3.2 16 16 16zM128 720c0 12.8 3.2 16 16 16h96c12.8 0 16-3.2 16-16V640v-83.2c0-9.6-3.2-12.8-16-12.8h-96c-12.8 0-16 3.2-16 16v160z" p-id="9854"></path></svg>