<?xml version="1.0" standalone="no"?><!DOCTYPE svg PUBLIC "-//W3C//DTD SVG 1.1//EN" "http://www.w3.org/Graphics/SVG/1.1/DTD/svg11.dtd"><svg t="1611757765268" class="icon" viewBox="0 0 1024 1024" version="1.1" xmlns="http://www.w3.org/2000/svg" p-id="5769" xmlns:xlink="http://www.w3.org/1999/xlink" width="200" height="200"><defs><style type="text/css"></style></defs><path d="M566.613333 325.333333a21.333333 21.333333 0 0 0 15.786667 25.386667l134.4 31.573333a26.453333 26.453333 0 0 0 5.76 0 25.173333 25.173333 0 0 0 13.44-3.84A24.96 24.96 0 0 0 746.666667 362.666667l31.573333-134.4a21.333333 21.333333 0 0 0-41.386667-9.6l-19.413333 82.773333-60.16-104.106667a149.333333 149.333333 0 0 0-258.56 0l-64 111.146667a12.586667 12.586667 0 0 0 4.693333 17.493333l14.72 8.533334a12.586667 12.586667 0 0 0 17.493334-4.693334l64-111.146666a92.16 92.16 0 0 1 7.04-10.666667 106.666667 106.666667 0 0 1 170.666666 0 92.16 92.16 0 0 1 7.04 10.666667l65.066667 112.64-93.226667-21.333334a21.333333 21.333333 0 0 0-25.6 15.36zM903.04 651.52a150.613333 150.613333 0 0 0-19.413333-62.293333l-57.813334-100.053334a12.8 12.8 0 0 0-17.493333-4.693333l-14.72 8.533333a12.586667 12.586667 0 0 0-4.693333 17.493334l57.813333 100.053333c2.133333 3.84 4.053333 7.893333 5.76 11.733333a106.666667 106.666667 0 0 1-85.333333 147.413334 116.48 116.48 0 0 1-12.16 0h-108.8L691.626667 725.333333A21.333333 21.333333 0 1 0 661.333333 694.4l-82.986666 82.773333a24.746667 24.746667 0 0 0 0 34.986667L661.333333 896a21.333333 21.333333 0 0 0 30.08 0 21.333333 21.333333 0 0 0 0-30.08L640 813.226667h114.346667a149.333333 149.333333 0 0 0 64-14.08 149.333333 149.333333 0 0 0 85.333333-147.626667zM429.866667 770.56h-122.88a111.786667 111.786667 0 0 1-99.413334-56.533333A106.666667 106.666667 0 0 1 197.76 640a108.373333 108.373333 0 0 1 11.52-29.44l59.946667-103.68 22.826666 80.64a23.466667 23.466667 0 0 0 22.613334 17.066667 21.333333 21.333333 0 0 0 6.4 0 23.893333 23.893333 0 0 0 16.426666-29.226667l-36.693333-130.133333a27.093333 27.093333 0 0 0-13.013333-16.426667 27.52 27.52 0 0 0-21.333334-2.56L137.6 462.933333a23.68 23.68 0 0 0 12.8 45.44l82.133333-23.253333-60.16 104.106667a149.333333 149.333333 0 0 0 0 149.333333 151.04 151.04 0 0 0 129.28 74.666667h128a12.8 12.8 0 0 0 12.8-12.8v-17.066667a12.8 12.8 0 0 0-12.586666-12.8z m-169.173334-293.333333z" p-id="5770"></path></svg>