<?xml version="1.0" standalone="no"?><!DOCTYPE svg PUBLIC "-//W3C//DTD SVG 1.1//EN" "http://www.w3.org/Graphics/SVG/1.1/DTD/svg11.dtd"><svg t="1606949167151" class="icon" viewBox="0 0 1024 1024" version="1.1" xmlns="http://www.w3.org/2000/svg" p-id="27005" xmlns:xlink="http://www.w3.org/1999/xlink" width="200" height="200"><defs><style type="text/css"></style></defs><path d="M 620.544 321.536 l -2.048 -26.624 c -32.768 -8.192 -88.064 -4.096 -129.024 -4.096 c -63.488 0 -106.496 -10.24 -108.544 26.624 c 30.72 10.24 192.512 0 239.616 4.096 Z"  p-id="27006"></path><path d="M 501.76 20.48 C 225.28 20.48 0 245.76 0 522.24 S 225.28 1024 501.76 1024 S 1003.52 798.72 1003.52 522.24 S 778.24 20.48 501.76 20.48 Z M 155.648 333.824 c 38.912 -26.624 137.216 -10.24 192.512 -14.336 c 2.048 -40.96 12.288 -53.248 43.008 -61.44 c 51.2 -2.048 110.592 0 163.84 0 c 61.44 0 96.256 -6.144 100.352 61.44 c 51.2 0 159.744 -12.288 192.512 14.336 v 204.8 c -38.912 22.528 -114.688 12.288 -167.936 12.288 H 321.536 c -47.104 0 -137.216 12.288 -165.888 -14.336 v -202.752 Z m 694.272 249.856 c 0 51.2 0 100.352 -2.048 145.408 c 0 53.248 -18.432 75.776 -71.68 75.776 c -69.632 0 -552.96 4.096 -579.584 -2.048 c -45.056 -12.288 -43.008 -51.2 -43.008 -102.4 c 0 -45.056 -2.048 -94.208 0 -139.264 c 8.192 -16.384 0 -6.144 10.24 -2.048 c 34.816 10.24 12.288 8.192 61.44 8.192 c 32.768 0 65.536 2.048 96.256 0 v 73.728 l 71.68 2.048 l 2.048 -75.776 h 215.04 l 8.192 73.728 h 4.096 l 61.44 2.048 l 2.048 -75.776 c 38.912 2.048 137.216 10.24 163.84 -14.336 v 30.72 Z"  p-id="27007"></path></svg>