<?xml version="1.0" standalone="no"?><!DOCTYPE svg PUBLIC "-//W3C//DTD SVG 1.1//EN" "http://www.w3.org/Graphics/SVG/1.1/DTD/svg11.dtd"><svg t="1606948719092" class="icon" viewBox="0 0 1605 1024" version="1.1" xmlns="http://www.w3.org/2000/svg" p-id="18043" xmlns:xlink="http://www.w3.org/1999/xlink" width="313.4765625" height="200"><defs><style type="text/css"></style></defs><path d="M91.162011 681.916793c0 57.646574 47.242071 104.748043 104.748044 104.748043H511.560199v131.321708H327.231763c-28.823287 0-53.006728 24.183441-53.006728 53.006728 0 28.823287 24.183441 53.006728 53.006728 53.006728H957.266638c28.823287 0 53.006728-24.183441 53.006728-53.006728 0-28.823287-24.183441-53.006728-53.006728-53.006728H773.078804v-131.321708h315.650144c57.646574 0 104.748043-47.242071 104.748043-104.748043v-53.006728h-1102.31498V681.916793z m998.551147-681.916793H195.910055c-57.646574 0-104.748043 47.242071-104.748044 104.748043v472.280105h1102.31498V104.748043c1.124811-57.505973-46.117259-104.748043-103.763833-104.748043z m0 0" fill="" p-id="18044"></path></svg>